<?xml version="1.0" encoding="utf-8"?>
<!-- Generator: Adobe Illustrator 22.0.1, SVG Export Plug-In . SVG Version: 6.00 Build 0)  -->
<svg version="1.1" id="Layer_1" xmlns="http://www.w3.org/2000/svg" xmlns:xlink="http://www.w3.org/1999/xlink" x="0px" y="0px"
	 viewBox="0 0 169.1 169.1" style="enable-background:new 0 0 169.1 169.1;" xml:space="preserve">
<g>
	<path d="M113.7,19.5H55.4c-19.8,0-35.9,16.1-35.9,35.9v58.3c0,19.8,16.1,35.9,35.9,35.9h58.3c19.8,0,35.9-16.1,35.9-35.9V55.4
		C149.6,35.6,133.5,19.5,113.7,19.5z M138,113.7c0,13.4-10.9,24.4-24.4,24.4H55.4C42,138,31,127.1,31,113.7V55.4
		C31,42,42,31,55.4,31h58.3C127.1,31,138,42,138,55.4L138,113.7L138,113.7z"/>
	<path d="M84.5,51C66.1,51,51,66.1,51,84.5c0,18.5,15,33.5,33.5,33.5S118,103,118,84.5C118,66.1,103,51,84.5,51z M84.5,106.5
		c-12.1,0-22-9.9-22-22c0-12.1,9.9-22,22-22s22,9.9,22,22C106.5,96.6,96.6,106.5,84.5,106.5z"/>
	<path d="M119.5,41.2c-2.2,0-4.4,0.9-6,2.5c-1.6,1.6-2.5,3.8-2.5,6c0,2.2,0.9,4.4,2.5,6c1.6,1.6,3.8,2.5,6,2.5c2.2,0,4.4-0.9,6-2.5
		c1.6-1.6,2.5-3.8,2.5-6c0-2.2-0.9-4.4-2.5-6C123.9,42.1,121.7,41.2,119.5,41.2z"/>
</g>
</svg>
